<svg xmlns="http://www.w3.org/2000/svg" xmlns:xlink="http://www.w3.org/1999/xlink" width="231" zoomAndPan="magnify" viewBox="0 0 173.25 30.000001" height="40" preserveAspectRatio="xMidYMid meet" version="1.0"><defs><g/><clipPath id="69cf72683a"><path d="M 2.429688 0 L 170.09375 0 L 170.09375 29.03125 L 2.429688 29.03125 Z M 2.429688 0 " clip-rule="nonzero"/></clipPath></defs><g clip-path="url(#69cf72683a)"><path fill="#ffffff" d="M 2.429688 0 L 170.09375 0 L 170.09375 29.03125 L 2.429688 29.03125 Z M 2.429688 0 " fill-opacity="1" fill-rule="nonzero"/><path fill="#ffffff" d="M 2.429688 0 L 170.09375 0 L 170.09375 29.03125 L 2.429688 29.03125 Z M 2.429688 0 " fill-opacity="1" fill-rule="nonzero"/></g><g fill="#000000" fill-opacity="1"><g transform="translate(2.431449, 22.483914)"><g><path d="M 1.765625 0 L 1.765625 -16.734375 L 12.125 -16.734375 L 12.125 -15.078125 L 3.78125 -15.078125 L 3.78125 -9.25 L 11.40625 -9.25 L 11.40625 -7.625 L 3.78125 -7.625 L 3.78125 -1.65625 L 12.125 -1.65625 L 12.125 0 Z M 1.765625 0 "/></g></g></g><g fill="#000000" fill-opacity="1"><g transform="translate(15.913038, 22.483914)"><g><path d="M 1.65625 0 L 1.65625 -11.859375 L 3.46875 -11.859375 L 3.609375 -10.140625 C 3.992188 -10.773438 4.503906 -11.265625 5.140625 -11.609375 C 5.773438 -11.960938 6.492188 -12.140625 7.296875 -12.140625 C 8.234375 -12.140625 9.039062 -11.945312 9.71875 -11.5625 C 10.394531 -11.1875 10.914062 -10.609375 11.28125 -9.828125 C 11.695312 -10.546875 12.265625 -11.109375 12.984375 -11.515625 C 13.710938 -11.929688 14.5 -12.140625 15.34375 -12.140625 C 16.757812 -12.140625 17.890625 -11.710938 18.734375 -10.859375 C 19.585938 -10.015625 20.015625 -8.707031 20.015625 -6.9375 L 20.015625 0 L 18.03125 0 L 18.03125 -6.71875 C 18.03125 -7.945312 17.78125 -8.867188 17.28125 -9.484375 C 16.789062 -10.109375 16.082031 -10.421875 15.15625 -10.421875 C 14.195312 -10.421875 13.398438 -10.050781 12.765625 -9.3125 C 12.140625 -8.570312 11.828125 -7.515625 11.828125 -6.140625 L 11.828125 0 L 9.828125 0 L 9.828125 -6.71875 C 9.828125 -7.945312 9.578125 -8.867188 9.078125 -9.484375 C 8.585938 -10.109375 7.878906 -10.421875 6.953125 -10.421875 C 6.015625 -10.421875 5.226562 -10.050781 4.59375 -9.3125 C 3.96875 -8.570312 3.65625 -7.515625 3.65625 -6.140625 L 3.65625 0 Z M 1.65625 0 "/></g></g></g><g fill="#000000" fill-opacity="1"><g transform="translate(37.306696, 22.483914)"><g><path d="M 5.59375 0.28125 C 4.601562 0.28125 3.78125 0.113281 3.125 -0.21875 C 2.476562 -0.550781 1.992188 -0.992188 1.671875 -1.546875 C 1.347656 -2.109375 1.1875 -2.71875 1.1875 -3.375 C 1.1875 -4.582031 1.648438 -5.507812 2.578125 -6.15625 C 3.503906 -6.8125 4.765625 -7.140625 6.359375 -7.140625 L 9.5625 -7.140625 L 9.5625 -7.296875 C 9.5625 -8.328125 9.289062 -9.109375 8.75 -9.640625 C 8.207031 -10.179688 7.484375 -10.453125 6.578125 -10.453125 C 5.796875 -10.453125 5.117188 -10.253906 4.546875 -9.859375 C 3.984375 -9.472656 3.628906 -8.90625 3.484375 -8.15625 L 1.4375 -8.15625 C 1.507812 -9.007812 1.796875 -9.734375 2.296875 -10.328125 C 2.804688 -10.921875 3.4375 -11.367188 4.1875 -11.671875 C 4.9375 -11.984375 5.734375 -12.140625 6.578125 -12.140625 C 8.234375 -12.140625 9.476562 -11.695312 10.3125 -10.8125 C 11.15625 -9.925781 11.578125 -8.753906 11.578125 -7.296875 L 11.578125 0 L 9.78125 0 L 9.65625 -2.125 C 9.320312 -1.457031 8.832031 -0.890625 8.1875 -0.421875 C 7.539062 0.046875 6.675781 0.28125 5.59375 0.28125 Z M 5.90625 -1.40625 C 6.664062 -1.40625 7.320312 -1.601562 7.875 -2 C 8.425781 -2.40625 8.84375 -2.925781 9.125 -3.5625 C 9.414062 -4.195312 9.5625 -4.863281 9.5625 -5.5625 L 9.5625 -5.59375 L 6.53125 -5.59375 C 5.34375 -5.59375 4.503906 -5.390625 4.015625 -4.984375 C 3.535156 -4.578125 3.296875 -4.070312 3.296875 -3.46875 C 3.296875 -2.84375 3.519531 -2.34375 3.96875 -1.96875 C 4.425781 -1.59375 5.070312 -1.40625 5.90625 -1.40625 Z M 5.90625 -1.40625 "/></g></g></g><g fill="#000000" fill-opacity="1"><g transform="translate(50.238506, 22.483914)"><g><path d="M 2.875 -14.484375 C 2.46875 -14.484375 2.132812 -14.613281 1.875 -14.875 C 1.613281 -15.144531 1.484375 -15.476562 1.484375 -15.875 C 1.484375 -16.257812 1.613281 -16.578125 1.875 -16.828125 C 2.132812 -17.085938 2.46875 -17.21875 2.875 -17.21875 C 3.25 -17.21875 3.570312 -17.085938 3.84375 -16.828125 C 4.113281 -16.578125 4.25 -16.257812 4.25 -15.875 C 4.25 -15.476562 4.113281 -15.144531 3.84375 -14.875 C 3.570312 -14.613281 3.25 -14.484375 2.875 -14.484375 Z M 1.859375 0 L 1.859375 -11.859375 L 3.875 -11.859375 L 3.875 0 Z M 1.859375 0 "/></g></g></g><g fill="#000000" fill-opacity="1"><g transform="translate(55.951459, 22.483914)"><g><path d="M 1.65625 0 L 1.65625 -17.21875 L 3.65625 -17.21875 L 3.65625 0 Z M 1.65625 0 "/></g></g></g><g fill="#000000" fill-opacity="1"><g transform="translate(61.287214, 22.483914)"><g/></g></g><g fill="#3176f4" fill-opacity="1"><g transform="translate(63.582546, 22.483914)"><g><path d="M 9.46875 0.28125 C 7.789062 0.28125 6.328125 -0.0820312 5.078125 -0.8125 C 3.828125 -1.539062 2.847656 -2.554688 2.140625 -3.859375 C 1.429688 -5.160156 1.078125 -6.660156 1.078125 -8.359375 C 1.078125 -10.066406 1.429688 -11.570312 2.140625 -12.875 C 2.847656 -14.175781 3.828125 -15.191406 5.078125 -15.921875 C 6.328125 -16.648438 7.789062 -17.015625 9.46875 -17.015625 C 11.125 -17.015625 12.582031 -16.648438 13.84375 -15.921875 C 15.101562 -15.191406 16.082031 -14.175781 16.78125 -12.875 C 17.476562 -11.570312 17.828125 -10.066406 17.828125 -8.359375 C 17.828125 -6.660156 17.476562 -5.160156 16.78125 -3.859375 C 16.082031 -2.554688 15.101562 -1.539062 13.84375 -0.8125 C 12.582031 -0.0820312 11.125 0.28125 9.46875 0.28125 Z M 9.46875 -2.46875 C 11.0625 -2.46875 12.332031 -2.992188 13.28125 -4.046875 C 14.226562 -5.097656 14.703125 -6.535156 14.703125 -8.359375 C 14.703125 -10.191406 14.226562 -11.632812 13.28125 -12.6875 C 12.332031 -13.738281 11.0625 -14.265625 9.46875 -14.265625 C 7.875 -14.265625 6.597656 -13.738281 5.640625 -12.6875 C 4.679688 -11.632812 4.203125 -10.191406 4.203125 -8.359375 C 4.203125 -6.535156 4.679688 -5.097656 5.640625 -4.046875 C 6.597656 -2.992188 7.875 -2.46875 9.46875 -2.46875 Z M 9.46875 -2.46875 "/></g></g></g><g fill="#3176f4" fill-opacity="1"><g transform="translate(82.490223, 22.483914)"><g><path d="M 1.546875 5.265625 L 1.546875 -11.859375 L 4.28125 -11.859375 L 4.609375 -10.15625 C 4.992188 -10.6875 5.5 -11.148438 6.125 -11.546875 C 6.757812 -11.941406 7.578125 -12.140625 8.578125 -12.140625 C 9.691406 -12.140625 10.6875 -11.867188 11.5625 -11.328125 C 12.445312 -10.785156 13.144531 -10.046875 13.65625 -9.109375 C 14.164062 -8.171875 14.421875 -7.101562 14.421875 -5.90625 C 14.421875 -4.707031 14.164062 -3.640625 13.65625 -2.703125 C 13.144531 -1.773438 12.445312 -1.046875 11.5625 -0.515625 C 10.6875 0.015625 9.691406 0.28125 8.578125 0.28125 C 7.691406 0.28125 6.910156 0.113281 6.234375 -0.21875 C 5.566406 -0.550781 5.023438 -1.019531 4.609375 -1.625 L 4.609375 5.265625 Z M 7.9375 -2.390625 C 8.90625 -2.390625 9.707031 -2.710938 10.34375 -3.359375 C 10.988281 -4.015625 11.3125 -4.863281 11.3125 -5.90625 C 11.3125 -6.9375 10.988281 -7.785156 10.34375 -8.453125 C 9.707031 -9.128906 8.90625 -9.46875 7.9375 -9.46875 C 6.945312 -9.46875 6.132812 -9.132812 5.5 -8.46875 C 4.875 -7.8125 4.5625 -6.960938 4.5625 -5.921875 C 4.5625 -4.890625 4.875 -4.039062 5.5 -3.375 C 6.132812 -2.71875 6.945312 -2.390625 7.9375 -2.390625 Z M 7.9375 -2.390625 "/></g></g></g><g fill="#3176f4" fill-opacity="1"><g transform="translate(98.075306, 22.483914)"><g><path d="M 7.3125 0.28125 C 6.113281 0.28125 5.050781 0.0234375 4.125 -0.484375 C 3.207031 -0.992188 2.484375 -1.707031 1.953125 -2.625 C 1.429688 -3.550781 1.171875 -4.617188 1.171875 -5.828125 C 1.171875 -7.054688 1.425781 -8.148438 1.9375 -9.109375 C 2.457031 -10.066406 3.175781 -10.8125 4.09375 -11.34375 C 5.007812 -11.875 6.09375 -12.140625 7.34375 -12.140625 C 8.5 -12.140625 9.523438 -11.882812 10.421875 -11.375 C 11.316406 -10.863281 12.015625 -10.164062 12.515625 -9.28125 C 13.015625 -8.394531 13.265625 -7.410156 13.265625 -6.328125 C 13.265625 -6.160156 13.257812 -5.976562 13.25 -5.78125 C 13.25 -5.59375 13.238281 -5.394531 13.21875 -5.1875 L 4.203125 -5.1875 C 4.265625 -4.257812 4.585938 -3.53125 5.171875 -3 C 5.753906 -2.476562 6.460938 -2.21875 7.296875 -2.21875 C 7.910156 -2.21875 8.425781 -2.359375 8.84375 -2.640625 C 9.269531 -2.921875 9.585938 -3.285156 9.796875 -3.734375 L 12.90625 -3.734375 C 12.6875 -2.984375 12.316406 -2.300781 11.796875 -1.6875 C 11.273438 -1.070312 10.632812 -0.585938 9.875 -0.234375 C 9.125 0.109375 8.269531 0.28125 7.3125 0.28125 Z M 7.34375 -9.65625 C 6.59375 -9.65625 5.929688 -9.441406 5.359375 -9.015625 C 4.785156 -8.597656 4.414062 -7.957031 4.25 -7.09375 L 10.15625 -7.09375 C 10.113281 -7.875 9.828125 -8.492188 9.296875 -8.953125 C 8.773438 -9.421875 8.125 -9.65625 7.34375 -9.65625 Z M 7.34375 -9.65625 "/></g></g></g><g fill="#3176f4" fill-opacity="1"><g transform="translate(112.369619, 22.483914)"><g><path d="M 1.546875 0 L 1.546875 -11.859375 L 4.28125 -11.859375 L 4.5625 -9.640625 C 5 -10.398438 5.585938 -11.003906 6.328125 -11.453125 C 7.066406 -11.910156 7.9375 -12.140625 8.9375 -12.140625 L 8.9375 -8.921875 L 8.078125 -8.921875 C 7.410156 -8.921875 6.8125 -8.816406 6.28125 -8.609375 C 5.757812 -8.398438 5.347656 -8.039062 5.046875 -7.53125 C 4.753906 -7.019531 4.609375 -6.3125 4.609375 -5.40625 L 4.609375 0 Z M 1.546875 0 "/></g></g></g><g fill="#3176f4" fill-opacity="1"><g transform="translate(121.835402, 22.483914)"><g><path d="M 5.640625 0.28125 C 4.617188 0.28125 3.78125 0.117188 3.125 -0.203125 C 2.476562 -0.523438 1.992188 -0.957031 1.671875 -1.5 C 1.347656 -2.039062 1.1875 -2.640625 1.1875 -3.296875 C 1.1875 -4.398438 1.617188 -5.289062 2.484375 -5.96875 C 3.347656 -6.65625 4.640625 -7 6.359375 -7 L 9.375 -7 L 9.375 -7.296875 C 9.375 -8.109375 9.140625 -8.703125 8.671875 -9.078125 C 8.210938 -9.460938 7.640625 -9.65625 6.953125 -9.65625 C 6.335938 -9.65625 5.796875 -9.507812 5.328125 -9.21875 C 4.867188 -8.925781 4.582031 -8.488281 4.46875 -7.90625 L 1.484375 -7.90625 C 1.566406 -8.769531 1.859375 -9.519531 2.359375 -10.15625 C 2.859375 -10.789062 3.503906 -11.28125 4.296875 -11.625 C 5.097656 -11.96875 5.992188 -12.140625 6.984375 -12.140625 C 8.671875 -12.140625 10 -11.71875 10.96875 -10.875 C 11.945312 -10.03125 12.4375 -8.835938 12.4375 -7.296875 L 12.4375 0 L 9.828125 0 L 9.53125 -1.90625 C 9.1875 -1.269531 8.695312 -0.742188 8.0625 -0.328125 C 7.4375 0.078125 6.628906 0.28125 5.640625 0.28125 Z M 6.328125 -2.109375 C 7.210938 -2.109375 7.894531 -2.394531 8.375 -2.96875 C 8.863281 -3.539062 9.171875 -4.25 9.296875 -5.09375 L 6.6875 -5.09375 C 5.875 -5.09375 5.289062 -4.941406 4.9375 -4.640625 C 4.59375 -4.347656 4.421875 -3.988281 4.421875 -3.5625 C 4.421875 -3.101562 4.59375 -2.742188 4.9375 -2.484375 C 5.289062 -2.234375 5.753906 -2.109375 6.328125 -2.109375 Z M 6.328125 -2.109375 "/></g></g></g><g fill="#3176f4" fill-opacity="1"><g transform="translate(135.627716, 22.483914)"><g><path d="M 6.84375 0 C 5.59375 0 4.59375 -0.300781 3.84375 -0.90625 C 3.09375 -1.507812 2.71875 -2.585938 2.71875 -4.140625 L 2.71875 -9.296875 L 0.6875 -9.296875 L 0.6875 -11.859375 L 2.71875 -11.859375 L 3.078125 -15.03125 L 5.78125 -15.03125 L 5.78125 -11.859375 L 8.984375 -11.859375 L 8.984375 -9.296875 L 5.78125 -9.296875 L 5.78125 -4.109375 C 5.78125 -3.535156 5.90625 -3.140625 6.15625 -2.921875 C 6.40625 -2.710938 6.832031 -2.609375 7.4375 -2.609375 L 8.921875 -2.609375 L 8.921875 0 Z M 6.84375 0 "/></g></g></g><g fill="#3176f4" fill-opacity="1"><g transform="translate(145.69109, 22.483914)"><g><path d="M 7.25 0.28125 C 6.09375 0.28125 5.054688 0.0195312 4.140625 -0.5 C 3.222656 -1.03125 2.5 -1.757812 1.96875 -2.6875 C 1.4375 -3.625 1.171875 -4.703125 1.171875 -5.921875 C 1.171875 -7.148438 1.441406 -8.226562 1.984375 -9.15625 C 2.523438 -10.09375 3.253906 -10.820312 4.171875 -11.34375 C 5.085938 -11.875 6.117188 -12.140625 7.265625 -12.140625 C 8.398438 -12.140625 9.425781 -11.875 10.34375 -11.34375 C 11.257812 -10.820312 11.984375 -10.09375 12.515625 -9.15625 C 13.046875 -8.226562 13.3125 -7.148438 13.3125 -5.921875 C 13.3125 -4.703125 13.046875 -3.625 12.515625 -2.6875 C 11.984375 -1.757812 11.253906 -1.03125 10.328125 -0.5 C 9.398438 0.0195312 8.375 0.28125 7.25 0.28125 Z M 7.25 -2.359375 C 8.039062 -2.359375 8.726562 -2.65625 9.3125 -3.25 C 9.90625 -3.851562 10.203125 -4.742188 10.203125 -5.921875 C 10.203125 -7.109375 9.90625 -8 9.3125 -8.59375 C 8.726562 -9.1875 8.046875 -9.484375 7.265625 -9.484375 C 6.453125 -9.484375 5.753906 -9.1875 5.171875 -8.59375 C 4.585938 -8 4.296875 -7.109375 4.296875 -5.921875 C 4.296875 -4.742188 4.585938 -3.851562 5.171875 -3.25 C 5.753906 -2.65625 6.445312 -2.359375 7.25 -2.359375 Z M 7.25 -2.359375 "/></g></g></g><g fill="#3176f4" fill-opacity="1"><g transform="translate(160.176615, 22.483914)"><g><path d="M 1.546875 0 L 1.546875 -11.859375 L 4.28125 -11.859375 L 4.5625 -9.640625 C 5 -10.398438 5.585938 -11.003906 6.328125 -11.453125 C 7.066406 -11.910156 7.9375 -12.140625 8.9375 -12.140625 L 8.9375 -8.921875 L 8.078125 -8.921875 C 7.410156 -8.921875 6.8125 -8.816406 6.28125 -8.609375 C 5.757812 -8.398438 5.347656 -8.039062 5.046875 -7.53125 C 4.753906 -7.019531 4.609375 -6.3125 4.609375 -5.40625 L 4.609375 0 Z M 1.546875 0 "/></g></g></g></svg>